<?xml version="1.0" encoding="UTF-8"?>
<svg xmlns="http://www.w3.org/2000/svg" xmlns:xlink="http://www.w3.org/1999/xlink" width="20pt" height="20pt" viewBox="0 0 20 20" version="1.1">
<g id="surface1">
<rect x="0" y="0" width="20" height="20" style="fill:rgb(7.058824%,6.27451%,5.490196%);fill-opacity:1;stroke:none;"/>
<path style=" stroke:none;fill-rule:nonzero;fill:rgb(100%,100%,100%);fill-opacity:1;" d="M 4.773438 6.6875 C 4.789062 6.523438 4.726562 6.359375 4.601562 6.25 L 3.347656 4.738281 L 3.347656 4.511719 L 7.242188 4.511719 L 10.253906 11.117188 L 12.902344 4.511719 L 16.617188 4.511719 L 16.617188 4.738281 L 15.542969 5.765625 C 15.449219 5.835938 15.40625 5.953125 15.421875 6.066406 L 15.421875 13.625 C 15.40625 13.738281 15.449219 13.855469 15.542969 13.925781 L 16.589844 14.953125 L 16.589844 15.179688 L 11.320312 15.179688 L 11.320312 14.953125 L 12.40625 13.898438 C 12.511719 13.792969 12.511719 13.761719 12.511719 13.597656 L 12.511719 7.492188 L 9.496094 15.15625 L 9.089844 15.15625 L 5.574219 7.492188 L 5.574219 12.628906 C 5.546875 12.84375 5.617188 13.0625 5.769531 13.214844 L 7.179688 14.929688 L 7.179688 15.15625 L 3.179688 15.15625 L 3.179688 14.929688 L 4.589844 13.214844 C 4.742188 13.058594 4.808594 12.839844 4.773438 12.628906 Z M 4.773438 6.6875 "/>
</g>
</svg>
